<svg width="152" height="151" viewBox="0 0 152 151" fill="none" xmlns="http://www.w3.org/2000/svg">
<mask id="mask0_837_92" style="mask-type:alpha" maskUnits="userSpaceOnUse" x="1" y="0" width="151" height="151">
<path d="M1.02734 41.6523C1.02734 19.0038 19.3876 0.643555 42.0361 0.643555H110.114C132.762 0.643555 151.123 19.0038 151.123 41.6523V109.803C151.123 132.451 132.762 150.812 110.114 150.812H42.0361C19.3876 150.812 1.02734 132.451 1.02734 109.803V41.6523Z" fill="#454A54"/>
</mask>
<g mask="url(#mask0_837_92)">
<path d="M1.02734 41.6523C1.02734 19.0038 19.3876 0.643555 42.0361 0.643555H110.114C132.762 0.643555 151.123 19.0038 151.123 41.6523V109.803C151.123 132.451 132.762 150.812 110.114 150.812H42.0361C19.3876 150.812 1.02734 132.451 1.02734 109.803V41.6523Z" fill="url(#paint0_radial_837_92)"/>
<g style="mix-blend-mode:overlay">
<g opacity="0.1">
<path d="M-252.672 -16.7393C-193.804 28.2429 -224.06 1.28092 -172.774 35.137C-117.304 71.7234 -107.647 164.213 -67.1264 139.572C-26.6054 114.999 8.51524 64.3516 18.0286 110.358C30.1884 168.923 97.8188 265.85 108.012 178.479C125.5 28.6525 126.323 235.338 161.372 149.128C199.425 55.6145 228.573 116.774 256.827 141.21C322.991 198.411 325.638 275.27 354.822 271.993C382.61 268.922 397.131 54.5906 453.674 73.0886" stroke="white" stroke-opacity="0.6" stroke-width="1.36696" stroke-miterlimit="10"/>
<path d="M-250.883 1.34961C-195.09 44.6936 -220.877 17.7316 -170.806 47.0826C-159.576 53.6354 -150.063 62.3042 -141.658 72.0652C-108.612 110.426 -98.2406 155.545 -66.4818 133.361C-26.7476 105.921 12.0567 61.3486 17.636 106.536C18.387 112.611 19.9606 118.959 21.7846 125.58C36.9487 180.528 95.3161 250.561 107.19 169.401C128.434 24.2161 128.863 216.704 162.231 144.009C172.603 121.416 182.295 110.836 191.522 107.901C214.626 100.529 234.332 125.784 253.323 136.433C276.784 149.538 289.266 165.101 298.458 186.056C312.12 217.25 315.267 236.158 333.292 235.68C362.082 234.861 395.164 55.0689 452.066 65.9219" stroke="white" stroke-opacity="0.6" stroke-width="1.36696" stroke-miterlimit="10"/>
</g>
<g opacity="0.17">
<path d="M-254.887 -22.2002C-200.418 14.1132 -226.025 -7.25164 -175.49 28.857C-121.7 67.2864 -109.648 157.319 -69.3412 138.548C-51.8882 130.425 -35.3651 117.729 -21.56 107.354C-3.10563 93.4293 10.8782 88.6512 17.3873 113.497C32.158 170.015 99.1089 266.396 110.482 181.141C129.401 39.3688 131.476 225.85 166.167 143.804C204.971 51.9966 235.407 107.695 263.267 134.111C324.603 192.199 328.823 263.324 357.22 262.778C384.616 262.232 400.137 66.1943 454.893 82.6445" stroke="white" stroke-opacity="0.6" stroke-width="1.36696" stroke-miterlimit="10"/>
<path d="M-248.092 17.3213C-195.339 59.0271 -216.655 31.9968 -167.872 56.9111C-156.75 62.5765 -147.093 70.1532 -138.438 79.0267C-104.14 114.18 -96.1648 149.674 -64.8352 125.101C-25.9236 94.6579 16.6002 55.4094 18.2096 100.665C18.4242 106.467 19.6044 112.542 20.8204 118.821C30.8344 171.312 92.5279 242.574 107.299 158.206C131.869 17.7308 132.369 196.021 164.021 136.773C173.928 118.275 183.083 111.722 192.024 111.245C214.162 110.153 232.831 125.647 250.821 129.47C272.78 134.179 284.261 144.486 293.559 169.264C305.97 202.233 310.19 221.004 327.965 221.891C357.792 223.393 394.2 53.3616 451.423 56.5698" stroke="white" stroke-opacity="0.6" stroke-width="1.36696" stroke-miterlimit="10"/>
</g>
<g opacity="0.24">
<path d="M-257.105 -27.6602C-207.071 -0.0155603 -227.993 -15.8515 -178.209 22.5779C-126.101 62.8503 -111.58 150.562 -71.5958 137.457C-53.8566 131.655 -37.0832 121.348 -23.1351 111.041C-4.82371 97.389 9.23167 93.3618 16.7064 116.638C34.231 171.176 100.323 267.011 112.877 183.736C133.084 49.9495 136.589 216.295 170.922 138.344C210.549 48.3113 242.201 98.4129 269.703 126.877C326.247 185.374 332.005 251.311 359.615 253.359C386.617 255.407 403.176 77.5941 456.072 91.9283" stroke="white" stroke-opacity="0.6" stroke-width="1.36696" stroke-miterlimit="10"/>
<path d="M-245.303 33.3633C-195.626 73.4991 -212.435 46.1958 -164.904 66.8781C-153.853 71.6562 -144.09 78.0725 -135.184 86.1269C-99.6345 118.072 -94.0553 144.01 -63.1549 116.98C-25.0658 83.6696 21.3563 48.9262 18.817 94.9322C18.5309 100.393 19.3177 106.263 19.89 112.27C24.7539 162.371 89.6305 234.862 107.441 147.218C135.015 11.3159 135.838 175.545 165.844 129.744C175.25 115.41 183.905 111.792 192.524 114.864C213.625 122.372 231.15 125.785 248.281 122.782C268.56 119.232 279.217 123.942 288.623 152.679C299.889 187.149 305.075 206.057 322.599 208.241C353.464 212.132 393.198 51.793 450.779 47.4245" stroke="white" stroke-opacity="0.6" stroke-width="1.36696" stroke-miterlimit="10"/>
</g>
<g opacity="0.31">
<path d="M-259.322 -33.1211C-213.687 -14.2136 -229.924 -24.4523 -180.927 16.2979C-130.499 58.2767 -113.475 143.941 -73.8483 136.364C-55.7873 132.951 -38.7634 125.033 -24.7438 114.726C-6.53976 101.279 7.58715 98.0713 15.9918 119.709C36.3775 172.336 101.433 267.625 115.274 186.329C136.696 60.6658 141.775 206.807 175.644 132.951C216.093 44.6933 248.889 89.0612 276.07 119.709C327.893 178.138 335.153 239.366 361.94 244.007C388.549 248.649 406.109 89.0612 457.217 101.348" stroke="white" stroke-opacity="0.6" stroke-width="1.36696" stroke-miterlimit="10"/>
<path d="M-242.514 49.3348C-195.877 87.8324 -208.144 60.3243 -161.972 76.7063C-150.993 80.597 -141.122 85.9212 -132.002 93.02C-95.1645 121.757 -92.0173 138.207 -61.5818 108.651C-24.3153 72.4743 26.2912 41.6216 19.3172 88.9928C18.5661 94.0439 18.888 99.7776 18.8522 105.511C18.6377 153.224 86.5184 226.874 107.476 135.954C137.769 4.55736 139.199 154.93 167.56 122.439C176.466 112.269 184.584 112.064 192.917 118.139C212.981 132.883 229.147 125.921 245.634 115.75C264.017 104.351 274.138 102.917 283.58 135.818C293.844 171.585 299.889 190.902 317.163 194.384C349.1 200.8 392.125 50.0174 450.027 38.0039" stroke="white" stroke-opacity="0.6" stroke-width="1.36696" stroke-miterlimit="10"/>
</g>
<g opacity="0.38">
<path d="M-261.576 -38.582C-220.34 -28.3433 -231.928 -33.1214 -183.681 10.0179C-134.899 53.7031 -115.3 132.678 -76.1022 135.272C-57.6836 136.5 -40.4809 128.651 -26.3182 118.412C-8.25723 105.238 6.0485 102.713 15.3115 122.78C38.6656 173.496 102.541 268.239 117.669 188.923C140.165 71.2455 146.96 197.387 180.364 127.559C221.708 41.1436 255.576 79.573 282.435 112.473C329.644 170.356 338.299 227.42 364.264 234.656C390.515 241.959 409.041 100.528 458.36 110.699" stroke="white" stroke-opacity="0.6" stroke-width="1.36696" stroke-miterlimit="10"/>
<path d="M-239.688 65.3746C-196.127 102.234 -203.852 74.453 -158.967 86.6029C-148.059 89.538 -138.081 93.7701 -128.711 100.05C-90.5859 125.51 -89.8349 132.541 -59.8643 100.459C-23.4205 61.4157 31.8355 34.5219 19.9975 83.19C18.853 87.8998 18.6742 93.4288 18.0304 98.8894C12.6658 144.145 83.4435 219.024 107.727 124.896C140.488 -2.1328 142.633 134.589 169.492 115.34C177.861 109.333 185.515 112.473 193.526 121.688C212.553 143.599 227.359 126.807 243.203 108.992C259.726 90.4254 269.382 82.0979 278.753 119.162C288.087 156.09 294.882 176.021 311.906 180.731C344.917 189.741 391.231 48.4466 449.492 28.8564" stroke="white" stroke-opacity="0.6" stroke-width="1.36696" stroke-miterlimit="10"/>
</g>
<g opacity="0.45">
<path d="M-263.793 -44.0439C-226.956 -42.474 -233.858 -41.8597 -186.435 3.73683C-139.261 49.0603 -117.123 131.107 -78.319 134.247C-59.5427 135.748 -42.1613 132.404 -27.8913 122.165C-9.97335 109.264 4.54699 107.421 14.5968 125.919C41.0266 174.587 103.543 268.92 120.066 191.584C143.492 81.9608 152.182 188.034 185.085 122.233C227.323 37.6612 262.265 70.0156 288.838 105.373C331.505 162.233 341.483 215.679 366.661 225.371C392.519 235.337 412.046 112.063 459.541 120.185" stroke="white" stroke-opacity="0.6" stroke-width="1.36696" stroke-miterlimit="10"/>
<path d="M-236.898 81.4148C-196.377 116.704 -199.525 88.4454 -155.999 96.4999C-145.163 98.4794 -135.077 101.619 -125.457 107.012C-86.0444 129.196 -87.6895 126.807 -58.1839 92.1314C-22.5269 50.2891 37.7719 27.6273 20.605 77.2511C19.1029 81.5514 18.3518 86.9437 17.1001 92.0631C6.58533 134.929 80.1526 210.832 107.87 113.633C142.883 -9.16388 145.852 114.042 171.316 107.967C179.113 106.124 186.337 112.541 194.026 124.895C212.052 153.837 225.606 127.83 240.699 101.892C255.47 76.5002 264.625 60.8691 273.852 102.234C282.364 140.322 289.839 161.004 306.577 166.738C340.624 178.478 390.265 46.5349 448.847 19.2998" stroke="white" stroke-opacity="0.6" stroke-width="1.36696" stroke-miterlimit="10"/>
</g>
<g opacity="0.52">
<path d="M-266.012 -49.5044C-233.573 -56.6032 -235.827 -50.6648 -189.154 -2.54269C-143.626 44.419 -118.949 124.964 -80.5736 133.155C-61.4396 137.25 -43.8436 136.022 -29.4663 125.851C-11.6914 113.155 3.07927 111.995 13.9159 129.059C43.4572 175.475 104.507 269.535 122.461 194.246C146.709 92.6093 157.438 178.751 189.805 116.841C232.973 34.1803 268.987 60.2549 295.202 98.2065C333.435 153.632 344.629 203.938 368.984 216.02C394.484 228.716 415.013 123.53 460.684 129.537" stroke="white" stroke-opacity="0.6" stroke-width="1.36696" stroke-miterlimit="10"/>
<path d="M-234.109 97.3873C-196.664 131.039 -195.234 102.302 -153.067 106.329C-142.267 107.353 -132.109 109.401 -122.238 113.974C-81.5386 132.813 -85.6158 121.141 -56.5751 83.8721C-21.7406 39.163 43.8869 21.4158 21.1408 71.3809C19.3168 75.4081 17.9578 80.5958 16.098 85.3738C0.433253 125.851 76.6471 202.573 107.941 102.507C145.064 -16.2627 148.891 93.2918 173.068 100.8C180.256 103.053 187.087 112.814 194.491 128.377C211.55 164.28 224.032 129.264 238.123 95.0665C251.32 63.0534 259.868 39.8456 268.88 85.5103C276.606 124.691 284.688 146.192 301.212 153.018C336.332 167.625 389.263 44.8967 448.203 10.085" stroke="white" stroke-opacity="0.6" stroke-width="1.36696" stroke-miterlimit="10"/>
</g>
<g opacity="0.59">
<path d="M-268.229 -54.9651C-240.189 -70.7327 -237.757 -59.4701 -191.872 -8.82249C-148.025 39.6409 -120.772 118.957 -82.8261 132.063C-63.3345 138.82 -45.5597 139.707 -31.0751 129.537C-13.4433 117.114 1.61355 116.5 13.2012 132.131C45.9613 176.226 105.366 270.149 124.858 196.84C149.785 103.121 162.732 169.468 194.526 111.449C238.695 30.7673 275.747 50.2209 301.569 91.0393C335.474 144.622 347.777 192.198 371.31 206.737C396.452 222.232 417.946 135.066 461.829 139.025" stroke="white" stroke-opacity="0.6" stroke-width="1.36696" stroke-miterlimit="10"/>
<path d="M-231.32 113.428C-196.915 145.441 -190.871 119.844 -150.099 116.227C-139.37 115.271 -129.07 117.251 -119.02 121.005C-76.9971 136.499 -83.5062 115.476 -54.9305 75.6813C-20.8828 28.2418 50.2167 16.0236 21.7125 65.6473C19.5309 69.4015 17.6354 74.2479 15.1319 78.8212C-5.71875 116.841 73.0344 194.382 108.048 91.5172C147.138 -23.4297 151.966 72.2001 174.855 93.7697C181.436 99.9812 187.909 113.223 194.955 131.926C211.121 174.861 222.601 130.766 235.548 88.3091C247.35 49.6066 255.182 18.8904 263.909 68.9237C270.919 109.196 279.538 131.517 295.811 139.434C331.933 156.977 388.226 43.3951 447.487 0.938477" stroke="white" stroke-opacity="0.6" stroke-width="1.36696" stroke-miterlimit="10"/>
</g>
<g opacity="0.66">
<path d="M-270.445 -60.4242C-246.841 -84.8607 -239.652 -68.3422 -194.589 -15.1008C-152.351 34.8643 -122.595 113.088 -85.0429 130.972C-65.2294 140.392 -47.24 143.327 -32.6124 133.224C-15.0878 121.006 0.219318 120.938 12.558 135.204C48.5727 176.773 106.189 270.628 127.29 199.435C152.754 113.498 168.097 160.255 199.284 106.058C244.49 27.4241 282.615 40.0519 307.972 83.8737C337.692 135.204 350.96 180.596 373.671 197.387C398.42 215.749 420.915 146.535 462.974 148.378" stroke="white" stroke-opacity="0.6" stroke-width="1.36696" stroke-miterlimit="10"/>
<path d="M-228.494 129.47C-197.165 159.845 -186.578 129.811 -147.094 126.194C-136.437 125.238 -126.029 125.17 -115.729 128.037C-72.4185 140.118 -81.3238 109.88 -53.2131 67.4915C-19.9522 17.2534 56.6193 11.1784 22.357 59.8466C19.8535 63.396 17.35 67.9693 14.2743 72.2013C-11.7264 107.832 69.4229 185.851 108.227 80.4605C149.213 -30.8004 155.329 50.9047 176.716 86.672C182.724 96.706 188.804 113.566 195.492 135.477C210.764 185.442 221.386 132.132 233.081 81.5527C243.595 36.0244 250.712 -2.13194 259.045 52.3381C265.376 93.7026 274.496 116.91 290.518 125.852C327.677 146.466 387.332 41.8946 446.916 -8.13867" stroke="white" stroke-opacity="0.6" stroke-width="1.36696" stroke-miterlimit="10"/>
</g>
<g opacity="0.71">
<path d="M-272.664 -65.8864C-253.459 -99.0599 -241.549 -77.2855 -197.309 -21.3138C-156.68 30.0164 -124.492 107.353 -87.2974 129.947C-67.1621 142.165 -48.9222 147.011 -34.2231 136.977C-16.8416 125.032 -1.24835 125.442 11.8414 138.342C51.1107 177.181 106.867 271.036 129.685 202.027C155.578 123.735 173.461 151.107 204.003 100.595C250.282 24.1462 289.552 29.4704 314.372 76.6368C340.087 125.51 354.106 168.854 376.03 188.034C400.385 209.263 423.918 158.001 464.153 157.796" stroke="white" stroke-opacity="0.6" stroke-width="1.36696" stroke-miterlimit="10"/>
<path d="M-225.705 145.441C-197.451 174.246 -182.251 143.325 -144.162 136.022C-133.576 133.974 -123.061 132.95 -112.511 134.998C-67.8769 143.666 -79.1785 104.213 -51.6042 59.231C-19.1301 6.19431 62.8776 6.74039 22.9288 53.9751C20.0676 57.3198 16.9919 61.5518 13.3082 65.5107C-17.8426 98.6843 65.5957 176.976 108.334 69.2649C151.108 -38.5148 158.762 29.4021 178.504 79.4354C184.011 93.3601 189.626 113.769 195.957 138.888C210.334 195.884 220.169 133.223 230.505 74.6573C239.768 22.1667 246.206 -23.225 254.074 35.5454C259.725 78.002 269.309 102.165 285.153 111.995C323.278 135.748 386.33 40.1869 446.236 -17.5596" stroke="white" stroke-opacity="0.6" stroke-width="1.36696" stroke-miterlimit="10"/>
</g>
<g opacity="0.8">
<path d="M-274.916 -71.3469C-260.11 -113.189 -243.443 -86.2272 -200.061 -27.5934C-161.007 25.1702 -126.422 101.688 -89.5494 128.923C-69.0922 144.008 -50.6378 150.765 -35.7956 140.8C-18.5572 129.128 -2.67776 129.878 11.163 141.619C53.7226 177.523 107.441 271.446 132.082 204.826C158.333 133.906 178.862 142.097 208.761 95.3397C256.149 21.143 296.741 18.8222 320.775 69.6064C342.591 115.681 357.255 157.455 378.391 178.82C402.318 202.983 426.888 169.605 465.299 167.284" stroke="white" stroke-opacity="0.6" stroke-width="1.36696" stroke-miterlimit="10"/>
<path d="M-222.914 161.482C-197.7 188.648 -177.994 156.84 -141.193 145.919C-130.678 142.779 -120.056 140.731 -109.255 141.96C-63.3335 147.147 -77.0313 98.6158 -49.9219 50.9033C-18.1989 -4.86371 69.1376 2.50817 23.5381 48.0364C20.3193 51.2446 16.7071 55.067 12.3796 58.6847C-23.9212 89.4692 61.6986 167.83 108.478 58.0021C153.041 -46.5013 162.304 8.0371 180.329 72.1316C185.372 90.0153 190.522 113.974 196.459 142.165C209.978 206.259 218.99 134.11 227.967 67.6266C236.014 8.03709 241.808 -44.5218 249.14 18.6854C254.182 62.3024 264.196 87.3532 279.79 98.138C318.88 125.1 385.33 38.412 445.557 -26.9111" stroke="white" stroke-opacity="0.6" stroke-width="1.36696" stroke-miterlimit="10"/>
</g>
<g opacity="0.87">
<path d="M-277.135 -76.8066C-266.727 -127.318 -245.304 -95.2364 -202.781 -33.8722C-165.264 20.2566 -128.355 96.0915 -91.8039 127.832C-71.0963 145.784 -52.32 154.384 -37.4063 144.487C-20.3109 133.019 -4.14543 134.18 10.4464 144.691C56.2606 177.592 107.833 271.447 134.477 207.421C160.943 143.872 184.261 133.156 213.445 90.0166C261.977 18.2089 304.143 7.76536 327.104 62.5085C345.237 105.716 360.293 145.988 380.679 169.537C404.176 196.704 429.784 181.141 466.406 176.773" stroke="white" stroke-opacity="0.6" stroke-width="1.36696" stroke-miterlimit="10"/>
<path d="M-220.127 177.456C-197.989 202.985 -173.741 170.152 -138.262 155.75C-127.819 151.518 -117.09 148.446 -106.074 148.924C-58.8655 150.494 -74.8879 93.0205 -48.3508 42.6459C-17.3788 -15.7832 75.1793 -1.44894 24.0363 42.1681C20.4599 45.2397 16.2754 48.6526 11.34 51.9973C-30.0752 80.3245 57.5833 158.48 108.512 46.8779C154.791 -54.5539 165.806 -13.0528 182.043 64.9664C186.585 86.8773 191.306 114.249 196.885 145.648C209.546 216.773 217.772 135.136 225.39 60.8026C232.221 -5.95397 237.442 -65.5434 244.13 1.96398C248.601 46.7414 258.937 72.6796 274.351 84.42C314.336 114.727 384.255 36.7757 444.84 -36.1924" stroke="white" stroke-opacity="0.6" stroke-width="1.36696" stroke-miterlimit="10"/>
</g>
<g opacity="0.94">
<path d="M-279.352 -82.2682C-273.343 -141.448 -247.128 -104.316 -205.498 -40.1528C-169.519 15.3411 -130.357 90.4935 -94.0207 126.739C-73.0628 147.626 -54.0004 158.069 -38.9436 148.172C-21.9555 136.977 -5.57545 138.479 9.80322 147.762C58.8719 177.454 108.191 271.037 136.91 210.014C163.518 153.496 189.698 124.213 218.202 84.6232C267.95 15.4094 312.048 -3.77121 333.506 55.3404C348.134 95.6128 363.37 134.452 383.04 160.253C406.072 190.424 432.788 192.744 467.587 186.192" stroke="white" stroke-opacity="0.6" stroke-width="1.36696" stroke-miterlimit="10"/>
<path d="M-217.299 193.495C-192.443 224.689 -151.278 157.728 -102.781 155.953C-54.2849 154.178 -72.7035 87.3532 -46.6313 34.4531C-14.3361 -31.0749 95.3175 -1.86031 10.4844 45.3744C-36.0808 71.3125 53.5804 148.99 108.729 35.8182C170.28 -90.4595 173.82 -7.73053 197.46 149.127C219.885 297.93 226.501 -166.294 239.269 -14.6929C253.539 154.588 360.653 65.1693 444.27 -45.4091" stroke="white" stroke-opacity="0.6" stroke-width="1.36696" stroke-miterlimit="10"/>
<path d="M-281.568 -87.7289C-277.813 -246.771 -112.117 198.41 -40.5166 151.858C30.8691 105.442 98.8214 288.101 139.342 212.607C215.163 71.3128 309.974 -50.6647 339.945 48.105C364.765 130.015 408.04 211.311 468.804 195.543" stroke="white" stroke-opacity="0.6" stroke-width="1.36696" stroke-miterlimit="10"/>
</g>
</g>
</g>
<g filter="url(#filter0_b_837_92)">
<rect x="0.982422" y="0.598633" width="150.327" height="150.327" rx="36.6182" fill="url(#paint1_linear_837_92)"/>
<rect x="1.94606" y="1.56227" width="148.4" height="148.4" rx="35.6546" stroke="black" stroke-opacity="0.05" stroke-width="1.92727"/>
</g>
<path d="M66.4224 60.0567C68.8762 60.0567 71.1254 60.4656 73.1702 61.2835L70.9465 78.3062H63.2786V70.7917C61.0294 71.2007 59.0357 72.4275 57.2977 74.4723C55.5596 76.5171 54.205 79.0986 53.2337 82.2169V93.872H61.285V102H35.7509V93.872H41.1184V69.3348H35.7509V61.2835H50.3966L52.5436 70.4083C54.026 66.9322 55.8919 64.3507 58.1411 62.6638C60.3904 60.9257 63.1508 60.0567 66.4224 60.0567ZM119.531 86.4342C119.531 89.7569 118.662 92.6963 116.924 95.2523C115.186 97.8082 112.681 99.8019 109.409 101.233C106.189 102.613 102.355 103.304 97.9075 103.304C89.115 103.304 82.1117 100.748 76.8975 95.6357L83.2618 88.5812C87.3003 92.1595 92.0799 93.9487 97.6008 93.9487C100.259 93.9487 102.38 93.3864 103.965 92.2618C105.601 91.086 106.419 89.4758 106.419 87.431C106.419 85.4885 105.729 83.9805 104.349 82.907C103.019 81.7823 100.515 80.6577 96.834 79.5331C90.5974 77.6417 86.1756 75.418 83.5686 72.862C80.9615 70.3061 79.6579 67.0089 79.6579 62.9705C79.6579 59.8011 80.527 57.0406 82.265 54.6892C84.0542 52.3377 86.4568 50.5485 89.4728 49.3216C92.54 48.0948 95.9394 47.4813 99.6711 47.4813C107.492 47.4813 113.831 49.7817 118.687 54.3824L112.783 61.2069C110.994 59.7244 109.051 58.6253 106.956 57.9097C104.911 57.1429 102.789 56.7595 100.591 56.7595C98.1375 56.7595 96.195 57.2196 94.7637 58.1397C93.3834 59.0087 92.6933 60.2867 92.6933 61.9736C92.6933 63.0983 93 64.044 93.6135 64.8108C94.278 65.5776 95.3515 66.2932 96.834 66.9578C98.3165 67.6223 100.54 68.4147 103.505 69.3348C108.924 70.9706 112.937 73.0921 115.544 75.6992C118.202 78.2551 119.531 81.8335 119.531 86.4342Z" fill="#0171F8"/>
<defs>
<filter id="filter0_b_837_92" x="-18.2903" y="-18.6741" width="188.874" height="188.873" filterUnits="userSpaceOnUse" color-interpolation-filters="sRGB">
<feFlood flood-opacity="0" result="BackgroundImageFix"/>
<feGaussianBlur in="BackgroundImageFix" stdDeviation="9.63637"/>
<feComposite in2="SourceAlpha" operator="in" result="effect1_backgroundBlur_837_92"/>
<feBlend mode="normal" in="SourceGraphic" in2="effect1_backgroundBlur_837_92" result="shape"/>
</filter>
<radialGradient id="paint0_radial_837_92" cx="0" cy="0" r="1" gradientUnits="userSpaceOnUse" gradientTransform="translate(-3.54873 9.09457) rotate(42.1256) scale(220.002 168.108)">
<stop stop-color="#060489"/>
<stop offset="0.0695798" stop-color="#051295"/>
<stop offset="0.570935" stop-color="#0065DF"/>
<stop offset="1" stop-color="#04194F"/>
</radialGradient>
<linearGradient id="paint1_linear_837_92" x1="76.1461" y1="0.598633" x2="76.1461" y2="150.926" gradientUnits="userSpaceOnUse">
<stop stop-color="white"/>
<stop offset="1" stop-color="white" stop-opacity="0.7"/>
</linearGradient>
</defs>
</svg>
