<svg width="151" height="151" viewBox="0 0 151 151" fill="none" xmlns="http://www.w3.org/2000/svg">
<mask id="mask0_838_144" style="mask-type:alpha" maskUnits="userSpaceOnUse" x="0" y="0" width="151" height="151">
<path d="M0.0449219 41.0537C0.0449219 18.4052 18.4052 0.0449219 41.0537 0.0449219H109.132C131.78 0.0449219 150.14 18.4052 150.14 41.0537V109.204C150.14 131.853 131.78 150.213 109.132 150.213H41.0537C18.4052 150.213 0.0449219 131.853 0.0449219 109.204V41.0537Z" fill="#454A54"/>
</mask>
<g mask="url(#mask0_838_144)">
<path d="M0.0449219 41.0537C0.0449219 18.4052 18.4052 0.0449219 41.0537 0.0449219H109.132C131.78 0.0449219 150.14 18.4052 150.14 41.0537V109.204C150.14 131.853 131.78 150.213 109.132 150.213H41.0537C18.4052 150.213 0.0449219 131.853 0.0449219 109.204V41.0537Z" fill="url(#paint0_radial_838_144)"/>
<g style="mix-blend-mode:overlay">
<g opacity="0.1">
<path d="M-253.654 -17.3379C-194.786 27.6443 -225.043 0.68229 -173.757 34.5384C-118.286 71.1248 -108.63 163.615 -68.1088 138.974C-27.5878 114.401 7.53281 63.7529 17.0461 109.759C29.206 168.325 96.8364 265.251 107.029 177.881C124.518 28.0538 125.341 234.74 160.39 148.53C198.443 55.0159 227.591 116.175 255.845 140.612C322.009 197.812 324.655 274.671 353.839 271.395C381.628 268.323 396.148 53.992 452.692 72.49" stroke="white" stroke-opacity="0.6" stroke-width="1.36696" stroke-miterlimit="10"/>
<path d="M-251.865 0.750977C-196.073 44.095 -221.859 17.133 -171.789 46.484C-160.559 53.0368 -151.046 61.7056 -142.641 71.4665C-109.595 109.828 -99.223 154.946 -67.4642 132.762C-27.7301 105.323 11.0743 60.75 16.6535 105.937C17.4046 112.012 18.9782 118.36 20.8022 124.981C35.9663 179.929 94.3337 249.962 106.207 168.803C127.451 23.6175 127.881 216.106 161.249 143.411C171.62 120.817 181.313 110.237 190.54 107.302C213.644 99.9302 233.35 125.186 252.341 135.834C275.802 148.94 288.284 164.503 297.475 185.458C311.137 216.652 314.284 235.559 332.31 235.082C361.1 234.262 394.182 54.4702 451.083 65.3233" stroke="white" stroke-opacity="0.6" stroke-width="1.36696" stroke-miterlimit="10"/>
</g>
<g opacity="0.17">
<path d="M-255.869 -22.7988C-201.4 13.5146 -227.007 -7.85028 -176.472 28.2584C-122.683 66.6878 -110.63 156.72 -70.3237 137.949C-52.8707 129.827 -36.3475 117.131 -22.5425 106.755C-4.08806 92.8307 9.89579 88.0526 16.4049 112.899C31.1756 169.416 98.1265 265.797 109.5 180.543C128.419 38.7702 130.493 225.252 165.185 143.205C203.989 51.3979 234.424 107.097 262.285 133.513C323.621 191.6 327.841 262.726 356.238 262.179C383.633 261.633 399.155 65.5956 453.91 82.0459" stroke="white" stroke-opacity="0.6" stroke-width="1.36696" stroke-miterlimit="10"/>
<path d="M-249.074 16.7227C-196.322 58.4284 -217.637 31.3982 -168.855 56.3124C-157.732 61.9779 -148.076 69.5545 -139.421 78.4281C-105.123 113.581 -97.1472 149.075 -65.8177 124.502C-26.906 94.0593 15.6178 54.8108 17.2272 100.066C17.4417 105.868 18.622 111.943 19.838 118.223C29.852 170.713 91.5455 241.975 106.316 157.608C130.886 17.1322 131.387 195.423 163.038 136.175C172.945 117.677 182.101 111.124 191.042 110.646C213.18 109.554 231.849 125.049 249.839 128.871C271.798 133.581 283.278 143.888 292.577 168.666C304.987 201.634 309.207 220.405 326.982 221.293C356.81 222.794 393.218 52.763 450.441 55.9711" stroke="white" stroke-opacity="0.6" stroke-width="1.36696" stroke-miterlimit="10"/>
</g>
<g opacity="0.24">
<path d="M-258.088 -28.2588C-208.054 -0.614193 -228.976 -16.4501 -179.192 21.9793C-127.083 62.2517 -112.563 149.964 -72.5782 136.858C-54.8391 131.056 -38.0656 120.749 -24.1175 110.442C-5.80613 96.7904 8.24925 92.7631 15.724 116.039C33.2485 170.578 99.3411 266.412 111.894 183.137C132.101 49.3509 135.606 215.696 169.94 137.745C209.567 47.7127 241.218 97.8142 268.721 126.278C325.264 184.775 331.023 250.713 358.633 252.76C385.635 254.808 402.194 76.9955 455.089 91.3297" stroke="white" stroke-opacity="0.6" stroke-width="1.36696" stroke-miterlimit="10"/>
<path d="M-246.285 32.7646C-196.608 72.9005 -213.418 45.5972 -165.887 66.2795C-154.836 71.0575 -145.072 77.4738 -136.167 85.5283C-100.617 117.473 -95.0377 143.411 -64.1373 116.381C-26.0483 83.071 20.3739 48.3275 17.8346 94.3336C17.5485 99.7943 18.3353 105.664 18.9075 111.671C23.7715 161.773 88.648 234.263 106.459 146.619C134.033 10.7172 134.856 174.947 164.862 129.145C174.268 114.811 182.923 111.193 191.542 114.265C212.643 121.773 230.168 125.186 247.299 122.183C267.577 118.634 278.235 123.343 287.641 152.08C298.907 186.551 304.093 205.458 321.617 207.642C352.482 211.533 392.216 51.1944 449.796 46.8259" stroke="white" stroke-opacity="0.6" stroke-width="1.36696" stroke-miterlimit="10"/>
</g>
<g opacity="0.31">
<path d="M-260.305 -33.7197C-214.669 -14.8122 -230.906 -25.0509 -181.909 15.6993C-131.481 57.6781 -114.458 143.342 -74.8307 135.766C-56.7697 132.353 -39.7459 124.435 -25.7262 114.128C-7.52218 100.681 6.60473 97.4727 15.0094 119.111C35.395 171.738 100.45 267.026 114.291 185.731C135.714 60.0671 140.793 206.208 174.661 132.353C215.111 44.0947 247.907 88.4626 275.088 119.111C326.91 177.54 334.171 238.767 360.958 243.409C387.567 248.05 405.127 88.4626 456.234 100.749" stroke="white" stroke-opacity="0.6" stroke-width="1.36696" stroke-miterlimit="10"/>
<path d="M-243.496 48.7361C-196.859 87.2338 -209.127 59.7257 -162.955 76.1077C-151.975 79.9984 -142.104 85.3225 -132.984 92.4214C-96.1469 121.158 -92.9997 137.608 -62.5642 108.053C-25.2978 71.8757 25.3088 41.0229 18.3348 88.3942C17.5837 93.4453 17.9056 99.179 17.8698 104.913C17.6552 152.625 85.536 226.276 106.494 135.356C136.786 3.95873 138.217 154.332 166.578 121.841C175.483 111.67 183.602 111.465 191.935 117.54C211.999 132.284 228.164 125.322 244.652 115.151C263.034 103.752 273.156 102.319 282.598 135.219C292.862 170.987 298.906 190.304 316.18 193.785C348.118 200.201 391.142 49.4187 449.045 37.4053" stroke="white" stroke-opacity="0.6" stroke-width="1.36696" stroke-miterlimit="10"/>
</g>
<g opacity="0.38">
<path d="M-262.559 -39.1807C-221.322 -28.9419 -232.91 -33.72 -184.664 9.41922C-135.881 53.1045 -116.282 132.079 -77.0847 134.673C-58.666 135.902 -41.4633 128.052 -27.3007 117.813C-9.23965 104.639 5.06608 102.114 14.329 122.182C37.6832 172.898 101.558 267.64 116.687 188.324C139.182 70.6469 145.978 196.788 179.382 126.96C220.725 40.545 254.594 78.9744 281.453 111.875C328.662 169.758 337.317 226.822 363.282 234.057C389.533 241.361 408.059 99.9297 457.378 110.1" stroke="white" stroke-opacity="0.6" stroke-width="1.36696" stroke-miterlimit="10"/>
<path d="M-240.67 64.776C-197.109 101.635 -204.834 73.8543 -159.95 86.0043C-149.042 88.9394 -139.063 93.1714 -129.693 99.4512C-91.5683 124.912 -90.8173 131.942 -60.8468 99.8607C-24.4029 60.817 30.853 33.9233 19.015 82.5914C17.8706 87.3012 17.6918 92.8301 17.048 98.2908C11.6834 143.546 82.461 218.425 106.745 124.297C139.505 -2.73143 141.651 133.99 168.51 114.741C176.879 108.734 184.533 111.874 192.544 121.089C211.57 143 226.377 126.208 242.22 108.393C258.744 89.8268 268.4 81.4992 277.77 118.563C287.105 155.491 293.9 175.423 310.924 180.132C343.934 189.143 390.249 47.8479 448.509 28.2578" stroke="white" stroke-opacity="0.6" stroke-width="1.36696" stroke-miterlimit="10"/>
</g>
<g opacity="0.45">
<path d="M-264.775 -44.6426C-227.938 -43.0726 -234.841 -42.4583 -187.417 3.1382C-140.244 48.4617 -118.106 130.508 -79.3015 133.648C-60.5252 135.15 -43.1437 131.805 -28.8737 121.566C-10.9558 108.665 3.56457 106.822 13.6144 125.32C40.0442 173.989 102.56 268.322 119.083 190.985C142.509 81.3622 151.2 187.435 184.103 121.635C226.341 37.0625 261.282 69.417 287.855 104.775C330.522 161.634 340.501 215.08 365.679 224.773C391.536 234.738 411.064 111.464 458.559 119.587" stroke="white" stroke-opacity="0.6" stroke-width="1.36696" stroke-miterlimit="10"/>
<path d="M-237.881 80.8162C-197.36 116.106 -200.507 87.8468 -156.982 95.9013C-146.145 97.8808 -136.06 101.021 -126.439 106.413C-87.0268 128.597 -88.6719 126.208 -59.1663 91.5327C-23.5093 49.6904 36.7894 27.0287 19.6225 76.6525C18.1204 80.9527 17.3694 86.3451 16.1176 91.4645C5.60291 134.331 79.1702 210.234 106.888 113.034C141.901 -9.76251 144.869 113.444 170.334 107.369C178.13 105.526 185.355 111.942 193.044 124.297C211.069 153.238 224.624 127.232 239.716 101.294C254.487 75.9016 263.643 60.2705 272.87 101.635C281.382 139.723 288.857 160.405 305.594 166.139C339.642 177.879 389.283 45.9362 447.865 18.7012" stroke="white" stroke-opacity="0.6" stroke-width="1.36696" stroke-miterlimit="10"/>
</g>
<g opacity="0.52">
<path d="M-266.994 -50.103C-234.556 -57.2019 -236.809 -51.2634 -190.137 -3.14133C-144.609 43.8203 -119.931 124.365 -81.556 132.556C-62.4221 136.652 -44.826 135.423 -30.4487 125.252C-12.6738 112.556 2.09684 111.396 12.9334 128.461C42.4748 174.876 103.525 268.936 121.478 193.647C145.726 92.0107 156.456 178.153 188.823 116.242C231.99 33.5816 268.005 59.6563 294.22 97.6078C332.452 153.034 343.646 203.34 368.002 215.422C393.502 228.118 414.031 122.932 459.702 128.938" stroke="white" stroke-opacity="0.6" stroke-width="1.36696" stroke-miterlimit="10"/>
<path d="M-235.092 96.7887C-197.647 130.44 -196.216 101.703 -154.05 105.73C-143.249 106.754 -133.092 108.802 -123.221 113.375C-82.5211 132.215 -86.5982 120.543 -57.5575 83.2735C-22.7231 38.5643 42.9045 20.8172 20.1584 70.7823C18.3344 74.8095 16.9754 79.9971 15.1156 84.7752C-0.549169 125.252 75.6647 201.975 106.958 101.908C144.082 -16.8613 147.909 92.6932 172.085 100.202C179.274 102.454 186.105 112.215 193.508 127.778C210.568 163.682 223.05 128.665 237.141 94.4679C250.338 62.4547 258.885 39.2469 267.898 84.9117C275.623 124.092 283.706 145.593 300.229 152.419C335.35 167.026 388.281 44.298 447.221 9.48633" stroke="white" stroke-opacity="0.6" stroke-width="1.36696" stroke-miterlimit="10"/>
</g>
<g opacity="0.59">
<path d="M-269.211 -55.5637C-241.172 -71.3314 -238.74 -60.0687 -192.854 -9.42112C-149.007 39.0422 -121.754 118.358 -83.8085 131.464C-64.3169 138.221 -46.5421 139.109 -32.0575 128.938C-14.4257 116.515 0.631125 115.901 12.2188 131.532C44.9789 175.627 104.384 269.55 123.875 196.241C148.803 102.522 161.75 168.869 193.544 110.85C237.713 30.1687 274.765 49.6223 300.587 90.4407C334.491 144.023 346.794 191.599 370.327 206.138C395.47 221.633 416.964 134.467 460.847 138.426" stroke="white" stroke-opacity="0.6" stroke-width="1.36696" stroke-miterlimit="10"/>
<path d="M-232.303 112.829C-197.897 144.843 -191.853 119.246 -151.082 115.628C-140.353 114.672 -130.052 116.652 -120.003 120.406C-77.9795 135.901 -84.4886 114.877 -55.9129 75.0826C-21.8653 27.6432 49.2343 15.4249 20.7301 65.0487C18.5485 68.8029 16.6529 73.6492 14.1494 78.2225C-6.70118 116.242 72.052 193.784 107.065 90.9186C146.156 -24.0283 150.984 71.6015 173.873 93.1711C180.454 99.3826 186.927 112.625 193.973 131.327C210.138 174.262 221.618 130.167 234.565 87.7104C246.367 49.008 254.2 18.2918 262.926 68.3251C269.936 108.597 278.555 130.918 294.828 138.836C330.95 156.378 387.243 42.7965 446.505 0.339844" stroke="white" stroke-opacity="0.6" stroke-width="1.36696" stroke-miterlimit="10"/>
</g>
<g opacity="0.66">
<path d="M-271.428 -61.0229C-247.823 -85.4593 -240.635 -68.9408 -195.572 -15.6994C-153.334 34.2656 -123.578 112.49 -86.0253 130.373C-66.2119 139.793 -48.2224 142.728 -33.5948 132.626C-16.0702 120.408 -0.763104 120.339 11.5756 134.605C47.5903 176.175 105.207 270.03 126.308 198.836C151.772 112.899 167.115 159.656 198.301 105.459C243.507 26.8255 281.632 39.4533 306.989 83.2751C336.709 134.605 349.978 179.997 372.688 196.789C397.437 215.15 419.933 145.936 461.992 147.779" stroke="white" stroke-opacity="0.6" stroke-width="1.36696" stroke-miterlimit="10"/>
<path d="M-229.477 128.871C-198.147 159.246 -187.561 129.213 -148.077 125.595C-137.419 124.639 -127.012 124.571 -116.712 127.438C-73.4009 139.52 -82.3063 109.281 -54.1955 66.8928C-20.9346 16.6548 55.6369 10.5798 21.3746 59.2479C18.8711 62.7974 16.3676 67.3706 13.2919 71.6026C-12.7088 107.233 68.4405 185.253 107.245 79.8619C148.231 -31.3991 154.346 50.3061 175.734 86.0734C181.742 96.1074 187.822 112.967 194.51 134.878C209.781 184.843 220.403 131.533 232.098 80.954C242.613 35.4258 249.73 -2.73058 258.063 51.7395C264.393 93.104 273.513 116.312 289.536 125.254C326.695 145.868 386.35 41.296 445.933 -8.7373" stroke="white" stroke-opacity="0.6" stroke-width="1.36696" stroke-miterlimit="10"/>
</g>
<g opacity="0.71">
<path d="M-273.646 -66.485C-254.441 -99.6585 -242.531 -77.8842 -198.291 -21.9124C-157.663 29.4178 -125.475 106.754 -88.2798 129.348C-68.1445 141.566 -49.9047 146.412 -35.2055 136.379C-17.824 124.433 -2.23078 124.843 10.859 137.744C50.1282 176.583 105.885 270.438 128.703 201.429C154.596 123.136 172.478 150.508 203.021 99.9969C249.3 23.5476 288.569 28.8718 313.39 76.0382C339.104 124.911 353.124 168.255 375.047 187.436C399.403 208.664 422.936 157.402 463.171 157.197" stroke="white" stroke-opacity="0.6" stroke-width="1.36696" stroke-miterlimit="10"/>
<path d="M-226.688 144.843C-198.434 173.648 -183.234 142.727 -145.145 135.423C-134.558 133.375 -124.044 132.351 -113.493 134.399C-68.8594 143.068 -80.1609 103.615 -52.5866 58.6323C-20.1125 5.59567 61.8952 6.14175 21.9464 53.3765C19.0852 56.7211 16.0095 60.9531 12.3257 64.9121C-18.825 98.0856 64.6132 176.378 107.352 68.6663C150.126 -39.1135 157.779 28.8035 177.521 78.8368C183.029 92.7615 188.644 113.171 194.974 138.29C209.352 195.285 219.187 132.624 229.523 74.0587C238.786 21.5681 245.223 -23.8236 253.091 34.9467C258.742 77.4034 268.327 101.567 284.171 111.396C322.295 135.15 385.348 39.5883 445.253 -18.1582" stroke="white" stroke-opacity="0.6" stroke-width="1.36696" stroke-miterlimit="10"/>
</g>
<g opacity="0.8">
<path d="M-275.898 -71.9456C-261.092 -113.788 -244.426 -86.8259 -201.044 -28.192C-161.989 24.5716 -127.405 101.089 -90.5318 128.324C-70.0746 143.409 -51.6202 150.167 -36.778 140.201C-19.5396 128.529 -3.66019 129.28 10.1806 141.02C52.7402 176.924 106.458 270.847 131.1 204.227C157.351 133.307 177.88 141.498 207.779 94.7411C255.166 20.5444 295.759 18.2236 319.793 69.0077C341.609 115.082 356.272 156.856 377.409 178.221C401.335 202.384 425.905 169.006 464.316 166.685" stroke="white" stroke-opacity="0.6" stroke-width="1.36696" stroke-miterlimit="10"/>
<path d="M-223.896 160.883C-198.683 188.05 -178.976 156.241 -142.175 145.32C-131.66 142.18 -121.038 140.133 -110.237 141.361C-64.316 146.549 -78.0137 98.0172 -50.9043 50.3046C-19.1813 -5.46235 68.1552 1.90954 22.5557 47.4378C19.3369 50.6459 15.7247 54.4684 11.3972 58.0861C-24.9036 88.8706 60.7162 167.231 107.496 57.4035C152.058 -47.0999 161.321 7.43846 179.347 71.533C184.389 89.4166 189.539 113.375 195.476 141.566C208.995 205.66 218.008 133.511 226.985 67.0279C235.032 7.43846 240.826 -45.1204 248.157 18.0867C253.2 61.7038 263.214 86.7545 278.807 97.5393C317.898 124.501 384.348 37.8134 444.575 -27.5098" stroke="white" stroke-opacity="0.6" stroke-width="1.36696" stroke-miterlimit="10"/>
</g>
<g opacity="0.87">
<path d="M-278.117 -77.4053C-267.71 -127.916 -246.287 -95.835 -203.763 -34.4708C-166.246 19.658 -129.337 95.4929 -92.7863 127.233C-72.0787 145.185 -53.3024 153.785 -38.3887 143.888C-21.2933 132.421 -5.12786 133.581 9.464 144.093C55.2781 176.993 106.85 270.848 133.495 206.822C159.96 143.274 183.279 132.557 212.462 89.4179C260.995 17.6102 303.161 7.16673 326.122 61.9098C344.254 105.117 359.311 145.39 379.697 168.939C403.194 196.106 428.801 180.543 465.424 176.174" stroke="white" stroke-opacity="0.6" stroke-width="1.36696" stroke-miterlimit="10"/>
<path d="M-221.109 176.857C-198.971 202.386 -174.723 169.554 -139.245 155.151C-128.802 150.919 -118.072 147.848 -107.057 148.325C-59.8479 149.895 -75.8703 92.4219 -49.3332 42.0473C-18.3613 -16.3818 74.1969 -2.04757 23.0539 41.5695C19.4774 44.6411 15.293 48.054 10.3575 51.3987C-31.0576 79.7258 56.6008 157.882 107.529 46.2793C153.808 -55.1525 164.824 -13.6515 181.061 64.3677C185.603 86.2786 190.324 113.65 195.903 145.049C208.564 216.174 216.789 134.537 224.407 60.204C231.238 -6.5526 236.46 -66.1421 243.148 1.36535C247.618 46.1428 257.954 72.0809 273.369 83.8213C313.353 114.128 383.272 36.1771 443.857 -36.791" stroke="white" stroke-opacity="0.6" stroke-width="1.36696" stroke-miterlimit="10"/>
</g>
<g opacity="0.94">
<path d="M-280.334 -82.8668C-274.326 -142.047 -248.11 -104.914 -206.481 -40.7515C-170.502 14.7425 -131.34 89.8948 -95.0031 126.14C-74.0452 147.027 -54.9828 157.47 -39.926 147.573C-22.938 136.379 -6.55787 137.88 8.8208 147.163C57.8895 176.856 107.208 270.438 135.927 209.415C162.536 152.897 188.715 123.614 217.22 84.0246C266.968 14.8107 311.065 -4.36984 332.524 54.7418C347.152 95.0142 362.387 133.853 382.058 159.655C405.09 189.825 431.806 192.146 466.604 185.593" stroke="white" stroke-opacity="0.6" stroke-width="1.36696" stroke-miterlimit="10"/>
<path d="M-218.281 192.896C-193.425 224.09 -152.26 157.129 -103.764 155.354C-55.2673 153.579 -73.6859 86.7546 -47.6137 33.8544C-15.3185 -31.6735 94.335 -2.45894 9.50197 44.7758C-37.0632 70.7139 52.598 148.392 107.747 35.2196C169.297 -91.0582 172.838 -8.32916 196.478 148.528C218.902 297.331 225.519 -166.893 238.287 -15.2915C252.557 153.989 359.671 64.5707 443.288 -46.0077" stroke="white" stroke-opacity="0.6" stroke-width="1.36696" stroke-miterlimit="10"/>
<path d="M-282.551 -88.3275C-278.796 -247.369 -113.099 197.811 -41.499 151.259C29.8867 104.843 97.839 287.502 138.36 212.009C214.18 70.7142 308.992 -51.2633 338.962 47.5064C363.783 129.416 407.058 210.712 467.821 194.944" stroke="white" stroke-opacity="0.6" stroke-width="1.36696" stroke-miterlimit="10"/>
</g>
</g>
</g>
<g filter="url(#filter0_b_838_144)">
<rect width="150.327" height="150.327" rx="36.6182" fill="url(#paint1_linear_838_144)"/>
<rect x="0.963637" y="0.963637" width="148.4" height="148.4" rx="35.6546" stroke="black" stroke-opacity="0.05" stroke-width="1.92727"/>
</g>
<path d="M65.44 59.458C67.8937 59.458 70.143 59.867 72.1878 60.6849L69.9641 77.7076H62.2962V70.1931C60.0469 70.602 58.0533 71.8289 56.3152 73.8737C54.5772 75.9184 53.2225 78.5 52.2513 81.6182V93.2734H60.3025V101.401H34.7685V93.2734H40.136V68.7362H34.7685V60.6849H49.4141L51.5612 69.8097C53.0436 66.3336 54.9095 63.7521 57.1587 62.0651C59.408 60.3271 62.1684 59.458 65.44 59.458ZM118.549 85.8356C118.549 89.1583 117.679 92.0977 115.941 94.6536C114.203 97.2096 111.699 99.2032 108.427 100.635C105.206 102.015 101.372 102.705 96.9251 102.705C88.1326 102.705 81.1292 100.149 75.9151 95.037L82.2794 87.9826C86.3178 91.5609 91.0975 93.3501 96.6184 93.3501C99.2766 93.3501 101.398 92.7878 102.983 91.6632C104.619 90.4874 105.436 88.8772 105.436 86.8324C105.436 84.8899 104.746 83.3818 103.366 82.3083C102.037 81.1837 99.5322 80.0591 95.8516 78.9345C89.615 77.0431 85.1932 74.8194 82.5861 72.2634C79.9791 69.7074 78.6755 66.4103 78.6755 62.3718C78.6755 59.2024 79.5445 56.442 81.2826 54.0905C83.0718 51.739 85.4744 49.9499 88.4904 48.723C91.5576 47.4961 94.957 46.8827 98.6887 46.8827C106.51 46.8827 112.849 49.1831 117.705 53.7838L111.801 60.6082C110.012 59.1258 108.069 58.0267 105.973 57.311C103.928 56.5442 101.807 56.1609 99.6088 56.1609C97.1551 56.1609 95.2126 56.6209 93.7812 57.5411C92.401 58.4101 91.7109 59.6881 91.7109 61.375C91.7109 62.4996 92.0176 63.4453 92.6311 64.2121C93.2956 64.9789 94.3691 65.6946 95.8516 66.3591C97.334 67.0237 99.5577 67.816 102.523 68.7362C107.941 70.372 111.954 72.4934 114.561 75.1005C117.219 77.6565 118.549 81.2348 118.549 85.8356Z" fill="#0171F8"/>
<defs>
<filter id="filter0_b_838_144" x="-19.2727" y="-19.2727" width="188.874" height="188.873" filterUnits="userSpaceOnUse" color-interpolation-filters="sRGB">
<feFlood flood-opacity="0" result="BackgroundImageFix"/>
<feGaussianBlur in="BackgroundImageFix" stdDeviation="9.63637"/>
<feComposite in2="SourceAlpha" operator="in" result="effect1_backgroundBlur_838_144"/>
<feBlend mode="normal" in="SourceGraphic" in2="effect1_backgroundBlur_838_144" result="shape"/>
</filter>
<radialGradient id="paint0_radial_838_144" cx="0" cy="0" r="1" gradientUnits="userSpaceOnUse" gradientTransform="translate(-4.53115 8.49594) rotate(42.1256) scale(220.002 168.108)">
<stop stop-color="#060489"/>
<stop offset="0.0695798" stop-color="#051295"/>
<stop offset="0.570935" stop-color="#0065DF"/>
<stop offset="1" stop-color="#04194F"/>
</radialGradient>
<linearGradient id="paint1_linear_838_144" x1="75.1637" y1="0" x2="75.1637" y2="150.327" gradientUnits="userSpaceOnUse">
<stop/>
<stop offset="1" stop-opacity="0.7"/>
</linearGradient>
</defs>
</svg>
